<?xml version="1.0" encoding="utf-8"?>
<!-- Generator: Adobe Illustrator 16.0.4, SVG Export Plug-In . SVG Version: 6.00 Build 0)  -->
<!DOCTYPE svg PUBLIC "-//W3C//DTD SVG 1.1//EN" "http://www.w3.org/Graphics/SVG/1.1/DTD/svg11.dtd">
<svg version="1.1" id="Layer_1" xmlns="http://www.w3.org/2000/svg" xmlns:xlink="http://www.w3.org/1999/xlink" x="0px" y="0px"
	 width="500px" height="500px" viewBox="0 0 500 500" style="enable-background:new 0 0 500 500;" xml:space="preserve">
<style type="text/css">
<![CDATA[
	.st0{fill:#FFFFFF;}
]]>
</style>
<g>
	<g>
		<path class="st0" d="M321.7,315.2H178.4c-3.5,0-6.3-2.8-6.3-6.3c0-3.5,2.8-6.3,6.3-6.3h143.3c3.5,0,6.3,2.8,6.3,6.3
			C328,312.4,325.2,315.2,321.7,315.2z"/>
	</g>
	<g>
		<path class="st0" d="M130.4,418.2c-2.2,0-4.3-0.5-6.2-1.5c-5.2-2.7-8.3-8.7-8.3-16.5l0-33c0-3.5,2.8-6.3,6.3-6.3l0,0
			c3.5,0,6.3,2.8,6.3,6.3l0,33c0,3.7,1,5,1.4,5.2c0.3,0.2,2.1,0.3,5-1.9l41.3-29.6c10.1-7.3,27.8-13,40.3-13h200.5
			c7.7,0,13.9-6.2,13.9-13.9V157.8c0-7.7-6.2-13.9-13.9-13.9H82.9c-7.7,0-13.9,6.2-13.9,13.9v189.3c0,7.5,5,13.9,10.9,13.9H97
			c3.5,0,6.3,2.8,6.3,6.3c0,3.5-2.8,6.3-6.3,6.3H79.8c-13,0-23.5-11.9-23.5-26.6V157.8c0-14.6,11.9-26.6,26.6-26.6h334.2
			c14.6,0,26.6,11.9,26.6,26.6v189.3c0,14.6-11.9,26.6-26.6,26.6H216.7c-9.9,0-25,4.9-33,10.6l-41.3,29.6
			C138.4,416.7,134.3,418.2,130.4,418.2z"/>
	</g>
	<g>
		<path class="st0" d="M186.6,265.4c-20,0-36.3-16.3-36.3-36.3c0-20,16.3-36.3,36.3-36.3c20,0,36.3,16.3,36.3,36.3
			C222.9,249.1,206.6,265.4,186.6,265.4z M186.6,205.5c-13,0-23.6,10.6-23.6,23.6c0,13,10.6,23.6,23.6,23.6
			c13,0,23.6-10.6,23.6-23.6C210.3,216.1,199.7,205.5,186.6,205.5z"/>
	</g>
	<g>
		<path class="st0" d="M313.7,265.4c-20,0-36.3-16.3-36.3-36.3c0-20,16.3-36.3,36.3-36.3c20,0,36.3,16.3,36.3,36.3
			C350,249.1,333.7,265.4,313.7,265.4z M313.7,205.5c-13,0-23.6,10.6-23.6,23.6c0,13,10.6,23.6,23.6,23.6c13,0,23.6-10.6,23.6-23.6
			C337.3,216.1,326.7,205.5,313.7,205.5z"/>
	</g>
	<g>
		<path class="st0" d="M250,143.9c-3.5,0-6.3-2.8-6.3-6.3v-33.6c0-3.5,2.8-6.3,6.3-6.3c10.5,0,19-8.5,19-19c0-10.5-8.5-19-19-19
			s-19,8.5-19,19c0,5.1,2,9.8,5.6,13.4c2.5,2.5,2.5,6.5,0,8.9c-2.5,2.5-6.5,2.5-9,0c-6-6-9.3-13.9-9.3-22.3
			c0-17.4,14.2-31.6,31.6-31.6s31.6,14.2,31.6,31.6c0,15.3-10.9,28-25.3,31v27.9C256.3,141,253.5,143.9,250,143.9z"/>
	</g>
</g>
</svg>
