<?xml version="1.0" encoding="utf-8"?>
<!-- Generator: Adobe Illustrator 16.0.4, SVG Export Plug-In . SVG Version: 6.00 Build 0)  -->
<!DOCTYPE svg PUBLIC "-//W3C//DTD SVG 1.1//EN" "http://www.w3.org/Graphics/SVG/1.1/DTD/svg11.dtd">
<svg version="1.1" id="Layer_1" xmlns="http://www.w3.org/2000/svg" xmlns:xlink="http://www.w3.org/1999/xlink" x="0px" y="0px"
	 width="500px" height="500px" viewBox="0 0 500 500" style="enable-background:new 0 0 500 500;" xml:space="preserve">
<style type="text/css">
<![CDATA[
	.st0{fill:#25AEE1;}
]]>
</style>
<g>
	<g>
		<g>
			<g>
				<path class="st0" d="M413.3,431.6c-3.8,0-7.8-1.4-11.7-4.2l-36.1-25.9c-5.5-4-16.7-7.6-23.5-7.6H172.8
					c-13.6,0-24.7-11.1-24.7-24.7v-97.4c0-13.6,11.1-24.7,24.7-24.7h280.8c13.6,0,24.7,11.1,24.7,24.7v97.4
					c0,13.6-10.4,24.7-23.2,24.7h-14.3c-4.9,0-8.9-4-8.9-8.9c0-4.9,4-8.9,8.9-8.9h14.3c2.9,0,5.4-3.2,5.4-6.9v-97.4
					c0-3.8-3.2-6.9-6.9-6.9H172.8c-3.8,0-6.9,3.2-6.9,6.9v97.4c0,3.8,3.2,6.9,6.9,6.9H342c10.7,0,25.2,4.7,33.9,10.9l34.9,25l0-27
					c0-4.9,4-8.9,8.9-8.9c0,0,0,0,0,0c4.9,0,8.9,4,8.9,8.9l0,28.5c0,7.6-3.1,13.6-8.6,16.4C417.9,431,415.6,431.6,413.3,431.6z"/>
			</g>
			<g>
				<path class="st0" d="M431.6,310.4h-42.1c-4.9,0-8.9-4-8.9-8.9c0-4.9,4-8.9,8.9-8.9h42.1c4.9,0,8.9,4,8.9,8.9
					C440.5,306.4,436.5,310.4,431.6,310.4z"/>
			</g>
			<g>
				<path class="st0" d="M230.9,345.6h-27.5c-4.9,0-8.9-4-8.9-8.9c0-4.9,4-8.9,8.9-8.9h27.5c4.9,0,8.9,4,8.9,8.9
					C239.8,341.6,235.8,345.6,230.9,345.6z"/>
			</g>
			<g>
				<path class="st0" d="M357.2,345.6H253.4c-4.9,0-8.9-4-8.9-8.9c0-4.9,4-8.9,8.9-8.9h103.8c4.9,0,8.9,4,8.9,8.9
					C366.1,341.6,362.1,345.6,357.2,345.6z"/>
			</g>
			<g>
				<path class="st0" d="M363.9,310.4H203.4c-4.9,0-8.9-4-8.9-8.9c0-4.9,4-8.9,8.9-8.9h160.5c4.9,0,8.9,4,8.9,8.9
					C372.8,306.4,368.8,310.4,363.9,310.4z"/>
			</g>
		</g>
	</g>
	<g>
		<g>
			<g>
				<path class="st0" d="M86.7,253c-2.3,0-4.6-0.5-6.7-1.6c-5.5-2.8-8.6-8.8-8.6-16.4l0-28.6c0-4.9,4-8.9,8.9-8.9c0,0,0,0,0,0
					c4.9,0,8.9,4,8.9,8.9l0,27l34.9-25c8.7-6.2,23.2-10.9,33.9-10.9h169.2c3.8,0,6.9-3.2,6.9-6.9V93.2c0-3.8-3.1-6.9-6.9-6.9H46.4
					c-3.8,0-6.9,3.1-6.9,6.9v97.4c0,3.8,2.5,6.9,5.4,6.9h14.3c4.9,0,8.9,4,8.9,8.9c0,4.9-4,8.9-8.9,8.9H44.9
					c-12.8,0-23.2-11.1-23.2-24.7V93.2c0-13.6,11.1-24.7,24.7-24.7h280.8c13.6,0,24.7,11.1,24.7,24.7v97.4
					c0,13.6-11.1,24.7-24.7,24.7H158c-6.8,0-18,3.6-23.5,7.6l-36.1,25.9C94.6,251.5,90.5,253,86.7,253z"/>
			</g>
			<g>
				<path class="st0" d="M110.4,131.7H68.4c-4.9,0-8.9-4-8.9-8.9c0-4.9,4-8.9,8.9-8.9h42.1c4.9,0,8.9,4,8.9,8.9
					C119.3,127.8,115.4,131.7,110.4,131.7z"/>
			</g>
			<g>
				<path class="st0" d="M223.6,166.9h-27.5c-4.9,0-8.9-4-8.9-8.9c0-4.9,4-8.9,8.9-8.9h27.5c4.9,0,8.9,4,8.9,8.9
					C232.5,162.9,228.6,166.9,223.6,166.9z"/>
			</g>
			<g>
				<path class="st0" d="M172.2,166.9H68.4c-4.9,0-8.9-4-8.9-8.9c0-4.9,4-8.9,8.9-8.9h103.8c4.9,0,8.9,4,8.9,8.9
					C181.1,162.9,177.1,166.9,172.2,166.9z"/>
			</g>
			<g>
				<path class="st0" d="M296.6,131.7H136.1c-4.9,0-8.9-4-8.9-8.9c0-4.9,4-8.9,8.9-8.9h160.5c4.9,0,8.9,4,8.9,8.9
					C305.5,127.8,301.6,131.7,296.6,131.7z"/>
			</g>
		</g>
	</g>
</g>
</svg>
