<?xml version="1.0" encoding="utf-8"?>
<!-- Generator: Adobe Illustrator 16.0.4, SVG Export Plug-In . SVG Version: 6.00 Build 0)  -->
<!DOCTYPE svg PUBLIC "-//W3C//DTD SVG 1.1//EN" "http://www.w3.org/Graphics/SVG/1.1/DTD/svg11.dtd">
<svg version="1.1" id="Layer_1" xmlns="http://www.w3.org/2000/svg" xmlns:xlink="http://www.w3.org/1999/xlink" x="0px" y="0px"
	 width="500px" height="500px" viewBox="0 0 500 500" style="enable-background:new 0 0 500 500;" xml:space="preserve">
<style type="text/css">
<![CDATA[
	.st0{fill:#25AEE1;}
]]>
</style>
<g>
	<path class="st0" d="M293,441.7h-86c-10.6,0-20.7-7.7-23.5-17.9l-34.3-161.7c0,0,0-0.1,0-0.1h-49.1c-7.2,0-13.1-3.4-15.7-9
		c-2.6-5.7-1.3-12.3,3.4-17.8L234.8,65.1c7.8-9,22.6-9,30.4,0l146.9,170.1c4.7,5.5,6,12.1,3.4,17.8c-2.6,5.7-8.5,9-15.7,9h-49.2
		c0,0,0,0.1,0,0.1l-34.1,161C313.7,433.9,303.6,441.7,293,441.7z M206.4,417.3c0.2,0.2,0.6,0.5,0.8,0.6l85.6,0
		c0.3-0.1,0.7-0.4,0.8-0.6l33.6-159.3c1.1-11,10.6-19.7,21.7-19.7h34.4L250,83.8L116.6,238.2h34.4c11.2,0,20.6,8.7,21.6,19.7
		L206.4,417.3z"/>
</g>
</svg>
