<?xml version="1.0" encoding="utf-8"?>
<!-- Generator: Adobe Illustrator 16.0.4, SVG Export Plug-In . SVG Version: 6.00 Build 0)  -->
<!DOCTYPE svg PUBLIC "-//W3C//DTD SVG 1.1//EN" "http://www.w3.org/Graphics/SVG/1.1/DTD/svg11.dtd">
<svg version="1.1" id="Layer_1" xmlns="http://www.w3.org/2000/svg" xmlns:xlink="http://www.w3.org/1999/xlink" x="0px" y="0px"
	 width="500px" height="500px" viewBox="0 0 500 500" style="enable-background:new 0 0 500 500;" xml:space="preserve">
<style type="text/css">
<![CDATA[
	.st0{fill:none;stroke:#25AEE1;stroke-width:2.25;stroke-linecap:round;stroke-linejoin:round;stroke-miterlimit:10;}
	.st1{fill:#25AEE1;}
]]>
</style>
<g>
	<g>
		<path class="st1" d="M1683.8,1596.6c-9.9,0-18.9-5.5-23.4-14.3c-1.1-2.2-0.3-4.9,2-6.1c2.2-1.1,4.9-0.3,6.1,2
			c3,5.8,8.9,9.4,15.4,9.4c9.6,0,17.3-7.8,17.3-17.3c0-9.6-7.8-17.3-17.3-17.3c-1.2,0-2.3,0.1-3.5,0.4c-2.4,0.5-4.8-1.1-5.3-3.5
			s1.1-4.8,3.5-5.3c1.7-0.4,3.5-0.5,5.3-0.5c14.5,0,26.3,11.8,26.3,26.3C1710.2,1584.8,1698.3,1596.6,1683.8,1596.6z"/>
	</g>
	<g>
		<path class="st1" d="M1721.2,1661.5h-36.6c-2.5,0-4.5-2-4.5-4.5c0-2.5,2-4.5,4.5-4.5h31.8c-2.2-16-16-28.4-32.6-28.4
			c-4.9,0-9.7,1.1-14.1,3.2c-2.2,1.1-4.9,0.1-6-2.1c-1.1-2.2-0.1-4.9,2.1-6c5.6-2.7,11.7-4,17.9-4c23.1,0,41.9,18.8,41.9,41.9
			C1725.7,1659.5,1723.7,1661.5,1721.2,1661.5z"/>
	</g>
	<g>
		<path class="st1" d="M1528.8,1596.6c-14.5,0-26.3-11.8-26.3-26.3c0-14.5,11.8-26.3,26.3-26.3c2.2,0,4.4,0.3,6.5,0.8
			c2.4,0.6,3.9,3.1,3.2,5.5c-0.6,2.4-3.1,3.9-5.5,3.2c-1.4-0.4-2.8-0.5-4.3-0.5c-9.6,0-17.3,7.8-17.3,17.3c0,9.6,7.8,17.3,17.3,17.3
			c6.1,0,11.7-3.1,14.8-8.4c1.3-2.1,4.1-2.8,6.2-1.5c2.1,1.3,2.8,4.1,1.5,6.2C1546.5,1591.9,1538.1,1596.6,1528.8,1596.6z"/>
	</g>
	<g>
		<path class="st1" d="M1528,1661.5h-36.7c-2.5,0-4.5-2-4.5-4.5c0-23.1,18.8-41.9,41.9-41.9c6.3,0,12.3,1.4,17.9,4
			c2.3,1.1,3.2,3.7,2.2,6c-1.1,2.3-3.7,3.2-6,2.1c-4.4-2.1-9.2-3.2-14.1-3.2c-16.6,0-30.4,12.4-32.6,28.4h31.8c2.5,0,4.5,2,4.5,4.5
			C1532.5,1659.5,1530.5,1661.5,1528,1661.5z"/>
	</g>
	<g>
		<path class="st1" d="M1662.8,1564.9c-2.5,0-4.5-2-4.5-4.5c0-28.7-23.3-52-52-52c-28.7,0-52,23.3-52,52c0,2.5-2,4.5-4.5,4.5
			s-4.5-2-4.5-4.5c0-33.6,27.4-61,61-61c33.6,0,61,27.4,61,61C1667.3,1562.9,1665.3,1564.9,1662.8,1564.9z"/>
	</g>
	<g>
		<path class="st0" d="M1612.9,1612.4"/>
	</g>
	<g>
		<path class="st0" d="M1606.6,1612.1"/>
	</g>
	<g>
		<path class="st0" d="M1602.3,1611.6"/>
	</g>
	<g>
		<path class="st1" d="M1598.4,1613.3c-0.3,0-0.6,0-0.9-0.1c-17.1-3.5-31.4-12.8-39.3-25.4c-0.6-1-1.2-2-1.7-3
			c-1.1-2.2-0.3-4.9,1.9-6.1c2.2-1.1,4.9-0.3,6.1,1.9c0.4,0.8,0.9,1.6,1.4,2.4c6.6,10.5,18.8,18.3,33.5,21.4c2.4,0.5,4,2.9,3.5,5.3
			C1602.4,1611.9,1600.5,1613.3,1598.4,1613.3z"/>
	</g>
	<g>
		<path class="st1" d="M1606.3,1593.8c-20.6,0-37.3-16.7-37.3-37.3c0-20.6,16.7-37.3,37.3-37.3c20.6,0,37.3,16.7,37.3,37.3
			C1643.6,1577.1,1626.9,1593.8,1606.3,1593.8z M1606.3,1528.2c-15.6,0-28.3,12.7-28.3,28.3c0,15.6,12.7,28.3,28.3,28.3
			c15.6,0,28.3-12.7,28.3-28.3C1634.6,1540.9,1621.9,1528.2,1606.3,1528.2z"/>
	</g>
	<g>
		<path class="st1" d="M1556.4,1571.5c-6.1,0-11.1-5.7-11.1-12.8c0-7,5-12.8,11.1-12.8c6.1,0,11.1,5.7,11.1,12.8
			C1567.5,1565.7,1562.5,1571.5,1556.4,1571.5z M1556.4,1554.9c-0.8,0-2.1,1.5-2.1,3.8c0,2.3,1.3,3.8,2.1,3.8c0.8,0,2.1-1.5,2.1-3.8
			C1558.5,1556.4,1557.2,1554.9,1556.4,1554.9z"/>
	</g>
	<g>
		<path class="st1" d="M1656.2,1571.5c-6.1,0-11.1-5.7-11.1-12.8c0-7,5-12.8,11.1-12.8s11.1,5.7,11.1,12.8
			C1667.3,1565.7,1662.4,1571.5,1656.2,1571.5z M1656.2,1554.9c-0.8,0-2.1,1.5-2.1,3.8c0,2.3,1.3,3.8,2.1,3.8c0.8,0,2.1-1.5,2.1-3.8
			C1658.3,1556.4,1657.1,1554.9,1656.2,1554.9z"/>
	</g>
	<g>
		<path class="st0" d="M1577,1616.3"/>
	</g>
	<g>
		<path class="st1" d="M1665.4,1672.1h-118.1c-2.5,0-4.5-2-4.5-4.5c0-22,11.1-42.1,29.7-53.8c2.1-1.3,4.9-0.7,6.2,1.4
			c1.3,2.1,0.7,4.9-1.4,6.2c-14.7,9.3-23.9,24.6-25.3,41.7h108.8c-2-24.7-20.4-45-45.1-49.3c-2.4-0.4-4.1-2.7-3.7-5.2
			c0.4-2.4,2.7-4.1,5.2-3.7c30.6,5.2,52.8,31.6,52.8,62.7C1669.9,1670.1,1667.9,1672.1,1665.4,1672.1z"/>
	</g>
</g>
<g>
	<g>
		<path class="st1" d="M250,431.1c-99.8,0-181.1-81.2-181.1-181c0-99.8,81.2-181.1,181.1-181.1c99.8,0,181,81.2,181,181.1
			C431.1,349.8,349.8,431.1,250,431.1z M250,80.2c-93.6,0-169.8,76.2-169.8,169.8c0,93.6,76.2,169.8,169.8,169.8
			c93.6,0,169.8-76.2,169.8-169.8C419.8,156.4,343.7,80.2,250,80.2z"/>
	</g>
	<g>
		<path class="st1" d="M249.4,204.9c3-0.6,4.7-3.5,3.7-6.4l-12.4-35.8c-1-2.9-4.2-4.6-7.2-3.7c0,0-16.3,4.8-22.7,10.2
			c-16.1,13.4-18.8,40.7-14.4,59.1c5.2,21.7,16.5,48.9,43.9,84.7c17.5,23,47,33.6,66.6,28.3c16.7-4.6,23.9-11,23.9-11
			c2.3-2,2.6-5.7,0.7-8.1l-25.7-31.8c-1.9-2.4-5.5-2.8-7.8-0.8c0,0-9.9,8.2-16.3,5.5c-10.3-4.5-47.3-59-42.5-81.6
			C240.6,206.6,249.4,204.9,249.4,204.9z"/>
	</g>
</g>
</svg>
